<svg width="154" height="33" viewBox="0 0 154 33" fill="none" xmlns="http://www.w3.org/2000/svg">
<rect x="0.875" width="33" height="33" rx="7.5" fill="#E84797"/>
<path d="M25.5348 10.25C24.4748 9.18719 23.0696 8.53852 21.5731 8.42115C20.0767 8.30378 18.5876 8.72545 17.3748 9.60998C16.1024 8.66362 14.5188 8.23449 12.9427 8.40902C11.3666 8.58355 9.91523 9.34876 8.88076 10.5506C7.84629 11.7524 7.30561 13.3015 7.36759 14.886C7.42957 16.4705 8.08961 17.9727 9.21479 19.09L15.4248 25.31C15.9448 25.8218 16.6452 26.1086 17.3748 26.1086C18.1044 26.1086 18.8048 25.8218 19.3248 25.31L25.5348 19.09C26.7024 17.9152 27.3577 16.3263 27.3577 14.67C27.3577 13.0137 26.7024 11.4247 25.5348 10.25Z" fill="#FDFDFC"/>
<path d="M55.0663 23.5H50.4253L45.5038 5.65H49.7878L52.8733 18.145L56.3158 5.65H59.6308L63.0733 18.145L66.1588 5.65H70.4428L65.5213 23.5H60.8803L57.9733 12.9685L55.0663 23.5ZM83.0519 18.655H73.9994C74.4244 19.845 75.4444 20.44 77.0594 20.44C78.0964 20.44 78.9124 20.117 79.5074 19.471L82.5674 21.2305C81.3264 22.9815 79.4734 23.857 77.0084 23.857C74.8834 23.857 73.1664 23.2195 71.8574 21.9445C70.5824 20.6695 69.9449 19.063 69.9449 17.125C69.9449 15.221 70.5739 13.623 71.8319 12.331C73.1069 11.039 74.7389 10.393 76.7279 10.393C78.5809 10.393 80.1194 11.039 81.3434 12.331C82.5844 13.589 83.2049 15.187 83.2049 17.125C83.2049 17.669 83.1539 18.179 83.0519 18.655ZM73.9229 15.799H79.4054C79.0314 14.456 78.1304 13.7845 76.7024 13.7845C75.2234 13.7845 74.2969 14.456 73.9229 15.799ZM94.5064 11.9485V5.65H98.3314V23.5H94.5064V22.3015C93.6224 23.3385 92.3559 23.857 90.7069 23.857C89.0239 23.857 87.5874 23.211 86.3974 21.919C85.2074 20.627 84.6124 19.029 84.6124 17.125C84.6124 15.238 85.2074 13.6485 86.3974 12.3565C87.6044 11.0475 89.0409 10.393 90.7069 10.393C92.3559 10.393 93.6224 10.9115 94.5064 11.9485ZM88.4374 17.125C88.4374 18.077 88.7179 18.8335 89.2789 19.3945C89.8399 19.9555 90.5709 20.236 91.4719 20.236C92.3729 20.236 93.1039 19.9555 93.6649 19.3945C94.2259 18.8335 94.5064 18.077 94.5064 17.125C94.5064 16.173 94.2259 15.4165 93.6649 14.8555C93.1039 14.2945 92.3729 14.014 91.4719 14.014C90.5709 14.014 89.8399 14.2945 89.2789 14.8555C88.7179 15.4165 88.4374 16.173 88.4374 17.125ZM110.394 11.9485V5.65H114.219V23.5H110.394V22.3015C109.51 23.3385 108.244 23.857 106.595 23.857C104.912 23.857 103.475 23.211 102.285 21.919C101.095 20.627 100.5 19.029 100.5 17.125C100.5 15.238 101.095 13.6485 102.285 12.3565C103.492 11.0475 104.929 10.393 106.595 10.393C108.244 10.393 109.51 10.9115 110.394 11.9485ZM104.325 17.125C104.325 18.077 104.606 18.8335 105.167 19.3945C105.728 19.9555 106.459 20.236 107.36 20.236C108.261 20.236 108.992 19.9555 109.553 19.3945C110.114 18.8335 110.394 18.077 110.394 17.125C110.394 16.173 110.114 15.4165 109.553 14.8555C108.992 14.2945 108.261 14.014 107.36 14.014C106.459 14.014 105.728 14.2945 105.167 14.8555C104.606 15.4165 104.325 16.173 104.325 17.125ZM120.544 8.965C120.102 9.407 119.567 9.628 118.938 9.628C118.309 9.628 117.765 9.407 117.306 8.965C116.864 8.506 116.643 7.962 116.643 7.333C116.643 6.704 116.864 6.1685 117.306 5.7265C117.765 5.2675 118.309 5.038 118.938 5.038C119.567 5.038 120.102 5.2675 120.544 5.7265C121.003 6.1685 121.233 6.704 121.233 7.333C121.233 7.962 121.003 8.506 120.544 8.965ZM120.85 23.5H117.025V10.75H120.85V23.5ZM131.121 10.393C132.498 10.393 133.628 10.8605 134.512 11.7955C135.43 12.7475 135.889 14.0395 135.889 15.6715V23.5H132.064V16.2325C132.064 15.5015 131.86 14.932 131.452 14.524C131.044 14.116 130.509 13.912 129.846 13.912C129.098 13.912 128.511 14.1415 128.086 14.6005C127.678 15.0425 127.474 15.6885 127.474 16.5385V23.5H123.649V10.75H127.474V11.9485C128.239 10.9115 129.455 10.393 131.121 10.393ZM147.875 12.0505V10.75H151.598V22.8625C151.598 24.8685 150.943 26.3815 149.634 27.4015C148.342 28.4385 146.753 28.957 144.866 28.957C141.976 28.957 139.961 27.9285 138.822 25.8715L142.086 23.9845C142.681 25.0555 143.65 25.591 144.993 25.591C145.911 25.591 146.617 25.353 147.11 24.877C147.62 24.401 147.875 23.7295 147.875 22.8625V21.6895C146.974 22.7945 145.733 23.347 144.152 23.347C142.367 23.347 140.871 22.718 139.664 21.46C138.474 20.202 137.879 18.672 137.879 16.87C137.879 15.068 138.474 13.5465 139.664 12.3055C140.854 11.0305 142.35 10.393 144.152 10.393C145.733 10.393 146.974 10.9455 147.875 12.0505ZM142.571 19.012C143.166 19.556 143.905 19.828 144.789 19.828C145.673 19.828 146.413 19.556 147.008 19.012C147.586 18.485 147.875 17.771 147.875 16.87C147.875 15.969 147.586 15.255 147.008 14.728C146.413 14.184 145.673 13.912 144.789 13.912C143.905 13.912 143.166 14.184 142.571 14.728C141.993 15.255 141.704 15.969 141.704 16.87C141.704 17.771 141.993 18.485 142.571 19.012Z" fill="#2B2D42"/>
</svg>
