<svg width="92" height="21" viewBox="0 0 92 21" fill="none" xmlns="http://www.w3.org/2000/svg">
<rect x="-0.00537109" y="0.565327" width="23.8077" height="20.145" rx="4.57841" fill="#F4F9FB"/>
<path d="M16.8798 6.82248C16.2327 6.17369 15.3749 5.77771 14.4614 5.70606C13.5479 5.63441 12.6388 5.89182 11.8985 6.43179C11.1218 5.85408 10.155 5.59211 9.1929 5.69865C8.23078 5.80519 7.34477 6.27232 6.71327 7.00597C6.08178 7.73962 5.75171 8.68529 5.78955 9.65255C5.82738 10.6198 6.23031 11.5368 6.91718 12.2189L10.7081 16.0159C11.0255 16.3283 11.4531 16.5034 11.8985 16.5034C12.3439 16.5034 12.7714 16.3283 13.0889 16.0159L16.8798 12.2189C17.5926 11.5018 17.9926 10.5318 17.9926 9.52069C17.9926 8.50961 17.5926 7.5396 16.8798 6.82248ZM16.0191 11.3765L12.2281 15.1674C12.185 15.2109 12.1337 15.2455 12.0771 15.2691C12.0205 15.2927 11.9598 15.3049 11.8985 15.3049C11.8372 15.3049 11.7765 15.2927 11.7199 15.2691C11.6633 15.2455 11.612 15.2109 11.5688 15.1674L7.77792 11.3582C7.29918 10.8688 7.0311 10.2114 7.0311 9.52679C7.0311 8.84219 7.29918 8.1848 7.77792 7.69543C8.26577 7.21377 8.92373 6.9437 9.60928 6.9437C10.2948 6.9437 10.9528 7.21377 11.4406 7.69543C11.4974 7.75264 11.5649 7.79806 11.6393 7.82905C11.7137 7.86004 11.7935 7.876 11.8741 7.876C11.9547 7.876 12.0344 7.86004 12.1088 7.82905C12.1832 7.79806 12.2507 7.75264 12.3075 7.69543C12.7953 7.21377 13.4533 6.9437 14.1389 6.9437C14.8244 6.9437 15.4824 7.21377 15.9702 7.69543C16.4555 8.17839 16.7324 8.83221 16.7416 9.51683C16.7507 10.2015 16.4913 10.8624 16.0191 11.3582V11.3765Z" fill="#E84797"/>
<path d="M44.334 5.98539L42.1162 15.0232H39.0267L37.7832 9.48512L36.514 15.0232H33.4245L31.2324 5.98539H33.9501L35.0013 12.1644L36.4243 5.98539H39.1805L40.565 12.1131L41.6162 5.98539H44.334ZM52.2715 11.344C52.2715 11.5405 52.2586 11.7371 52.233 11.9337H47.4769C47.5026 12.3268 47.6094 12.6216 47.7974 12.8182C47.994 13.0062 48.2418 13.1002 48.541 13.1002C48.9597 13.1002 49.2589 12.9122 49.4383 12.5362H52.1176C52.0065 13.0319 51.7886 13.4763 51.4638 13.8694C51.1476 14.254 50.7459 14.5574 50.2588 14.7796C49.7716 15.0018 49.2332 15.1129 48.6435 15.1129C47.9342 15.1129 47.3017 14.9633 46.7462 14.6642C46.1993 14.3651 45.7677 13.9378 45.4515 13.3823C45.1438 12.8268 44.99 12.173 44.99 11.4209C44.99 10.6688 45.1438 10.0193 45.4515 9.4723C45.7591 8.91679 46.1864 8.48947 46.7334 8.19035C47.2889 7.89123 47.9256 7.74167 48.6435 7.74167C49.3529 7.74167 49.981 7.88695 50.528 8.17753C51.075 8.46811 51.5023 8.88688 51.81 9.43385C52.1176 9.97227 52.2715 10.609 52.2715 11.344ZM49.7075 10.7158C49.7075 10.4081 49.605 10.1688 49.3999 9.99791C49.1948 9.81843 48.9384 9.72869 48.6307 9.72869C48.323 9.72869 48.0709 9.81416 47.8744 9.98509C47.6778 10.1475 47.5496 10.391 47.4898 10.7158H49.7075ZM52.8895 11.4209C52.8895 10.6773 53.022 10.0278 53.2869 9.4723C53.5604 8.91679 53.9322 8.48947 54.4022 8.19035C54.8723 7.89123 55.3936 7.74167 55.9662 7.74167C56.4277 7.74167 56.8379 7.83995 57.1969 8.03652C57.5644 8.22454 57.8507 8.4852 58.0558 8.81851V5.5367H60.5812V15.0232H58.0558V14.0232C57.8592 14.3566 57.5815 14.6215 57.2225 14.8181C56.8636 15.0146 56.4405 15.1129 55.9534 15.1129C55.3808 15.1129 54.8594 14.9633 54.3894 14.6642C53.9279 14.3651 53.5604 13.9378 53.2869 13.3823C53.022 12.8182 52.8895 12.1644 52.8895 11.4209ZM58.0686 11.4209C58.0686 10.9594 57.9404 10.5962 57.684 10.3312C57.4362 10.0663 57.1285 9.93381 56.761 9.93381C56.385 9.93381 56.073 10.0663 55.8252 10.3312C55.5773 10.5876 55.4534 10.9508 55.4534 11.4209C55.4534 11.8824 55.5773 12.2499 55.8252 12.5234C56.073 12.7883 56.385 12.9208 56.761 12.9208C57.1285 12.9208 57.4362 12.7883 57.684 12.5234C57.9404 12.2584 58.0686 11.8909 58.0686 11.4209ZM61.6028 11.4209C61.6028 10.6773 61.7353 10.0278 62.0002 9.4723C62.2737 8.91679 62.6454 8.48947 63.1155 8.19035C63.5855 7.89123 64.1069 7.74167 64.6795 7.74167C65.141 7.74167 65.5512 7.83995 65.9101 8.03652C66.2776 8.22454 66.5639 8.4852 66.7691 8.81851V5.5367H69.2945V15.0232H66.7691V14.0232C66.5725 14.3566 66.2947 14.6215 65.9358 14.8181C65.5768 15.0146 65.1538 15.1129 64.6667 15.1129C64.094 15.1129 63.5727 14.9633 63.1027 14.6642C62.6412 14.3651 62.2737 13.9378 62.0002 13.3823C61.7353 12.8182 61.6028 12.1644 61.6028 11.4209ZM66.7819 11.4209C66.7819 10.9594 66.6537 10.5962 66.3973 10.3312C66.1494 10.0663 65.8418 9.93381 65.4743 9.93381C65.0982 9.93381 64.7863 10.0663 64.5385 10.3312C64.2906 10.5876 64.1667 10.9508 64.1667 11.4209C64.1667 11.8824 64.2906 12.2499 64.5385 12.5234C64.7863 12.7883 65.0982 12.9208 65.4743 12.9208C65.8418 12.9208 66.1494 12.7883 66.3973 12.5234C66.6537 12.2584 66.7819 11.8909 66.7819 11.4209ZM71.9954 7.16479C71.551 7.16479 71.1921 7.04514 70.9186 6.80584C70.6536 6.55799 70.5212 6.25033 70.5212 5.88283C70.5212 5.50679 70.6536 5.19485 70.9186 4.94701C71.1921 4.69916 71.551 4.57524 71.9954 4.57524C72.4313 4.57524 72.7817 4.69916 73.0466 4.94701C73.3201 5.19485 73.4569 5.50679 73.4569 5.88283C73.4569 6.25033 73.3201 6.55799 73.0466 6.80584C72.7817 7.04514 72.4313 7.16479 71.9954 7.16479ZM73.2389 7.8314V15.0232H70.7263V7.8314H73.2389ZM79.3746 7.7673C80.2036 7.7673 80.8616 8.04506 81.3488 8.60057C81.8359 9.14754 82.0795 9.89108 82.0795 10.8312V15.0232H79.5669V11.1645C79.5669 10.7543 79.46 10.4338 79.2464 10.203C79.0327 9.96372 78.7464 9.84407 78.3875 9.84407C78.0114 9.84407 77.7166 9.96372 77.5029 10.203C77.2893 10.4338 77.1824 10.7543 77.1824 11.1645V15.0232H74.6698V7.8314H77.1824V8.85697C77.4046 8.5322 77.7038 8.27154 78.0798 8.07497C78.4558 7.86986 78.8874 7.7673 79.3746 7.7673ZM86.1118 7.74167C86.599 7.74167 87.022 7.83995 87.381 8.03652C87.7485 8.23308 88.0305 8.49802 88.2271 8.83133V7.8314H90.7397V14.9462C90.7397 15.6214 90.6115 16.2282 90.3551 16.7666C90.0987 17.3136 89.697 17.7495 89.1501 18.0742C88.6117 18.399 87.9279 18.5614 87.099 18.5614C85.9879 18.5614 85.0991 18.3007 84.4325 17.7794C83.7659 17.258 83.3856 16.5487 83.2915 15.6513H85.7657C85.817 15.8821 85.9452 16.0615 86.1503 16.1897C86.3554 16.3179 86.6204 16.382 86.9451 16.382C87.7998 16.382 88.2271 15.9034 88.2271 14.9462V14.0232C88.0305 14.3566 87.7485 14.6215 87.381 14.8181C87.022 15.0146 86.599 15.1129 86.1118 15.1129C85.5392 15.1129 85.0179 14.9633 84.5479 14.6642C84.0864 14.3651 83.7189 13.9378 83.4454 13.3823C83.1804 12.8182 83.048 12.1644 83.048 11.4209C83.048 10.6773 83.1804 10.0278 83.4454 9.4723C83.7189 8.91679 84.0864 8.48947 84.5479 8.19035C85.0179 7.89123 85.5392 7.74167 86.1118 7.74167ZM88.2271 11.4209C88.2271 10.9594 88.0989 10.5962 87.8425 10.3312C87.5946 10.0663 87.287 9.93381 86.9195 9.93381C86.5434 9.93381 86.2315 10.0663 85.9837 10.3312C85.7358 10.5876 85.6119 10.9508 85.6119 11.4209C85.6119 11.8824 85.7358 12.2499 85.9837 12.5234C86.2315 12.7883 86.5434 12.9208 86.9195 12.9208C87.287 12.9208 87.5946 12.7883 87.8425 12.5234C88.0989 12.2584 88.2271 11.8909 88.2271 11.4209Z" fill="#F4F9FB"/>
</svg>
